arm26_states
version=1
nRows=8
nColumns=17
inDegrees=yes

# SIMM Motion File Header:
name arm26_states
datacolumns 17
datarows 8
otherdata 1
range 0.600000 0.620000
endheader
time	/jointset/r_shoulder/r_shoulder_elev/value	/jointset/r_shoulder/r_shoulder_elev/speed	/jointset/r_elbow/r_elbow_flex/value	/jointset/r_elbow/r_elbow_flex/speed	/forceset/TRIlong/activation	/forceset/TRIlong/fiber_length	/forceset/TRIlat/activation	/forceset/TRIlat/fiber_length	/forceset/TRImed/activation	/forceset/TRImed/fiber_length	/forceset/BIClong/activation	/forceset/BIClong/fiber_length	/forceset/BICshort/activation	/forceset/BICshort/fiber_length	/forceset/BRA/activation	/forceset/BRA/fiber_length
      0.60000000	      5.61389835	    -29.48160179	    -79.43242505	   -114.86891987	      0.02375456	      0.15662986	     -0.78575121	      0.08743922	    198.21452485	      0.07980456	      0.23164426	      0.12655540	     -0.28666460	      0.12921929	     29.57536608	      0.06554816
      0.60211720	      5.55202192	    -28.96874361	    -79.67541105	   -114.66748707	      0.02398513	      0.15668342	     -0.78841296	      0.08753580	    198.84747499	      0.07989923	      0.23411770	      0.12642855	     -0.28832230	      0.12907056	     29.81342217	      0.06545046
      0.60530578	      5.46090233	    -28.18101510	    -80.04058827	   -114.39424586	      0.02419841	      0.15676400	     -0.79242166	      0.08768036	    199.80072202	      0.08004146	      0.23684198	      0.12623241	     -0.29081885	      0.12884612	     30.17194372	      0.06530337
      0.61025529	      5.32456174	    -26.89894350	    -80.60600160	   -114.10725372	      0.02435657	      0.15689311	     -0.79864421	      0.08790614	    201.28040931	      0.08026134	      0.23947901	      0.12592218	     -0.29469416	      0.12849676	     30.72846238	      0.06507521
      0.61208903	      5.27568907	    -26.40320516	    -80.81518852	   -114.04914416	      0.02438679	      0.15694211	     -0.80094960	      0.08798654	    201.82861839	      0.08034253	      0.24012758	      0.12580650	     -0.29612992	      0.12836693	     30.93464689	      0.06499071
      0.61458944	      5.21053020	    -25.71278711	    -81.10028944	   -113.99997917	      0.02441441	      0.15700998	     -0.80409313	      0.08809885	    202.57613067	      0.08045304	      0.24081532	      0.12564850	     -0.29808765	      0.12818952	     31.21579044	      0.06487548
      0.61933689	      5.09164006	    -24.36735571	    -81.64140430	   -113.96820086	      0.02444174	      0.15714191	     -0.81006164	      0.08831314	    203.99541151	      0.08066230	      0.24167930	      0.12534796	     -0.30180475	      0.12785127	     31.74958991	      0.06465656
      0.62000000	      5.07554497	    -24.17683925	    -81.71697749	   -113.96724349	      0.02444397	      0.15716063	     -0.81089531	      0.08834211	    204.19365260	      0.08069148	      0.24176633	      0.12530592	     -0.30232395	      0.12780385	     31.82414949	      0.06462596
